<?xml version="1.0" encoding="iso-8859-1"?>
<!-- Generator: Adobe Illustrator 19.0.0, SVG Export Plug-In . SVG Version: 6.00 Build 0)  -->
<svg version="1.1" id="Capa_1" xmlns="http://www.w3.org/2000/svg" xmlns:xlink="http://www.w3.org/1999/xlink" x="0px" y="0px"
	 viewBox="0 0 512 512" style="enable-background:new 0 0 512 512;" xml:space="preserve">
<rect x="366.038" y="288.591" transform="matrix(0.7071 -0.7071 0.7071 0.7071 -166.0073 400.7787)" style="fill:#917464;" width="69.482" height="224.374"/>
<polygon style="fill:#FBDF97;" points="298.915,348.054 264.649,313.778 313.779,264.648 348.901,299.771 300.618,348.054 "/>
<path style="fill:#FBC640;" d="M154.953,301.807c-39.225,0-76.105-15.275-103.845-43.01c-57.25-57.261-57.25-150.43,0-207.691
	C78.849,23.37,115.727,8.095,154.954,8.095c39.225,0,76.105,15.275,103.845,43.01c57.249,57.261,57.249,150.43,0,207.691
	C231.057,286.532,194.177,301.807,154.953,301.807z M154.951,57.726c-25.969,0-50.386,10.111-68.751,28.474
	c-37.903,37.912-37.903,99.592,0,137.495c18.366,18.366,42.782,28.481,68.751,28.481s50.383-10.114,68.744-28.481
	c18.366-18.361,28.481-42.775,28.481-68.744s-10.114-50.386-28.481-68.751C205.335,67.838,180.92,57.726,154.951,57.726z"/>
<path style="fill:#8CE0FF;" d="M154.951,256.261c-27.061,0-52.504-10.539-71.641-29.677c-39.497-39.496-39.497-103.768,0-143.275
	c19.138-19.134,44.581-29.67,71.641-29.67s52.501,10.536,71.633,29.67c19.138,19.138,29.677,44.58,29.677,71.641
	s-10.539,52.501-29.677,71.634C207.451,245.722,182.012,256.261,154.951,256.261z"/>
<path d="M264.577,45.327l-0.001-0.001c-60.447-60.436-158.801-60.435-219.249,0.001c-60.436,60.447-60.436,158.801,0.001,219.249
	c30.224,30.217,69.923,45.327,109.624,45.327c36.511,0,73.016-12.79,102.156-38.348l19.102,19.102l-15.896,15.896
	c-3.99,3.99-3.99,10.457-0.001,14.447l32.223,32.233c0.093,0.093,0.188,0.184,0.283,0.274l155.5,155.5
	c1.916,1.916,4.515,2.992,7.224,2.992s5.309-1.077,7.224-2.992l46.24-46.24c1.916-1.916,2.992-4.515,2.992-7.224
	c0-2.709-1.077-5.309-2.992-7.224L353.309,292.62c-0.05-0.051-0.101-0.102-0.152-0.152l-32.153-32.154
	c-3.99-3.99-10.459-3.99-14.448,0l-15.896,15.896l-19.103-19.103C324.905,196.282,322.586,103.346,264.577,45.327z M455.543,487.335
	L314.22,346.011l31.792-31.792l141.323,141.323L455.543,487.335z M313.779,281.986l17.785,17.785l-31.796,31.796l-17.782-17.788
	L313.779,281.986z M59.776,250.128c-52.47-52.48-52.47-137.873-0.001-190.353c26.24-26.236,60.709-39.354,95.177-39.354
	c34.468,0,68.936,13.118,95.175,39.352c52.47,52.479,52.471,137.869,0.005,190.35c-0.001,0.001-0.003,0.002-0.004,0.004
	c-0.001,0.001-0.002,0.003-0.004,0.004C197.644,302.598,112.255,302.596,59.776,250.128z"/>
<path d="M264.435,154.95c0-29.245-11.389-56.74-32.071-77.42c-42.683-42.683-112.14-42.684-154.835,0
	c-42.683,42.693-42.682,112.15,0,154.833c20.681,20.682,48.176,32.072,77.421,32.072s56.738-11.389,77.412-32.07
	C253.045,211.688,264.435,184.195,264.435,154.95z M154.951,244.001c-23.786,0-46.15-9.264-62.973-26.087
	c-34.717-34.716-34.716-91.211,0-125.936c17.365-17.361,40.165-26.038,62.973-26.038c22.801,0,45.609,8.681,62.965,26.037l0,0
	c16.823,16.822,26.087,39.186,26.087,62.972s-9.263,46.146-26.087,62.966C201.098,234.737,178.737,244.001,154.951,244.001z"/>
<path d="M219.78,146.023c-0.766-5.59-5.92-9.504-11.51-8.734c-5.59,0.766-9.5,5.919-8.734,11.51
	c1.932,14.091-2.721,27.931-12.764,37.972c-3.991,3.99-3.991,10.459-0.002,14.449c1.995,1.995,4.61,2.993,7.225,2.993
	c2.614,0,5.229-0.997,7.223-2.991C215.823,186.621,222.588,166.503,219.78,146.023z"/>
<path d="M198.423,129.972c13.148,0,13.169-20.433,0-20.433C185.275,109.538,185.254,129.972,198.423,129.972z"/>
<g>
</g>
<g>
</g>
<g>
</g>
<g>
</g>
<g>
</g>
<g>
</g>
<g>
</g>
<g>
</g>
<g>
</g>
<g>
</g>
<g>
</g>
<g>
</g>
<g>
</g>
<g>
</g>
<g>
</g>
</svg>
